<svg xmlns="http://www.w3.org/2000/svg" viewBox="0 0 420 220" role="img" aria-labelledby="title desc">
  <title id="title">따뜻한 떡집 로고</title>
  <desc id="desc">세 개의 귀여운 떡 캐릭터와 따뜻한 떡집 한글 로고</desc>
  <rect width="420" height="220" fill="none"/>
  <g transform="translate(70 18)" fill="#fff0ec" stroke="#ff6f8d" stroke-width="3.5" stroke-linecap="round" stroke-linejoin="round">
    <path d="M61 78c-30 0-54-8-54-23C7 22 31 1 63 1c24 0 45 14 53 36 8-22 29-36 55-36 32 0 56 21 56 54 0 15-24 23-54 23"/>
    <path d="M17 78C6 77 0 71 0 62 0 31 22 11 53 11c22 0 39 11 49 29"/>
    <path d="M180 40c10-18 27-29 49-29 31 0 53 20 53 51 0 9-6 15-17 16"/>
  </g>
  <g transform="translate(70 18)" fill="#ff6f8d">
    <circle cx="45" cy="53" r="3.2"/>
    <circle cx="82" cy="53" r="3.2"/>
    <path d="M61 58c2-5 8-5 10 0"/>
    <circle cx="59" cy="64" r="6" fill="none" stroke="#ff6f8d" stroke-width="2"/>
    <circle cx="75" cy="64" r="6" fill="none" stroke="#ff6f8d" stroke-width="2"/>
    <path d="M65 64h4" stroke="#ff6f8d" stroke-width="2"/>

    <circle cx="143" cy="53" r="3.2"/>
    <circle cx="180" cy="53" r="3.2"/>
    <path d="M159 58c2-5 8-5 10 0"/>
    <circle cx="157" cy="64" r="6" fill="none" stroke="#ff6f8d" stroke-width="2"/>
    <circle cx="173" cy="64" r="6" fill="none" stroke="#ff6f8d" stroke-width="2"/>
    <path d="M163 64h4" stroke="#ff6f8d" stroke-width="2"/>

    <circle cx="227" cy="53" r="3.2"/>
    <circle cx="253" cy="53" r="3.2"/>
    <path d="M237 58c2-5 8-5 10 0"/>
    <circle cx="235" cy="64" r="6" fill="none" stroke="#ff6f8d" stroke-width="2"/>
    <circle cx="251" cy="64" r="6" fill="none" stroke="#ff6f8d" stroke-width="2"/>
    <path d="M241 64h4" stroke="#ff6f8d" stroke-width="2"/>
  </g>
  <text x="210" y="148" text-anchor="middle" fill="#ff5f82" font-family="'Malgun Gothic','Apple SD Gothic Neo',sans-serif" font-size="47" font-weight="700">따뜻한 떡집</text>
  <text x="210" y="178" text-anchor="middle" fill="#ff7892" font-family="Arial,sans-serif" font-size="13" font-weight="700" letter-spacing="2.8">RICE CAKE SHOP</text>
</svg>
